{"title":"Uma Noite De Amor E MÃƒÂºsica.DVDRip.XviD-nsiervi","uid":4836895,"size":734029367,"categoryP":"video","categoryS":"movies","magnet":"?xt=urn:btih:6036a6377c34f765a15d4e19880e4f31471ab32f&amp;dn=Uma+Noite+De+Amor+E+M%C3%83%C2%BAsica.DVDRip.XviD-nsiervi&amp;tr=udp%3A%2F%2Ftracker.openbittorrent.com%3A80&amp;tr=udp%3A%2F%2Fopen.demonii.com%3A1337&amp;tr=udp%3A%2F%2Ftracker.coppersurfer.tk%3A6969&amp;tr=udp%3A%2F%2Fexodus.desync.com%3A6969","seeders":1,"leechers":1,"uploader":"nsiervi","files":2,"time":1239356164,"description":"Uma Noite De Amor E MÃƒÂºsica\n( Nick And Norahs Infinite Playlist ) - Audio PT_Br -\n\n\n\n\n[img]http://img7.imageshack.us/img7/4610/2709537ggh.jpg[/img]\n\nSinopse:\nDuas pessoas sÃƒÂ£o forÃƒÂ§adas a virar a noite numa hilÃƒÂ¡ria aventura num mundo de coletÃƒÂ¢neas de discos, baladas nas altas horas e mÃƒÂºsica ao vivo a todo volume. Nick (Michael Cera) freqÃƒÂ¼enta o cenÃƒÂ¡rio do rock alternativo de Nova York alimentando uma dor de cotovelo e tocando baixo na banda punk gay chamada The Jerk Offs. Norah (Kat Dennings) anda questionando todas as suas concepÃƒÂ§ÃƒÂµes sobre o mundo. Apesar de nÃƒÂ£o terem nada em comum (exceto o gosto musical) o encontro casual os leva a missÃƒÂ£o de virar a noite ÃƒÂ  procura de um show secreto de uma fantÃƒÂ¡stica banda e a aventura acaba se transformando na primeira balada que poderÃƒÂ¡ mudar a vida dos dois para sempre.\n\nElenco:\nMichael Cera ... Nick\nKat Dennings ... Norah\nAaron Yoo ... Thom\nRafi Gavron ... Dev\nAri Graynor ... Caroline\nAlexis Dziena ... Tris\n\nInfos do arquivo:\nDireÃƒÂ§ÃƒÂ£o: Pete Sollett\nGÃƒÂªnero: ComÃƒÂ©dia/Romance/Drama\nDuraÃƒÂ§ÃƒÂ£o: 1:29:32\nDistribuidora: Sony Pictures\nLink IMDB: http://www.imdb.com/title/tt0981227/\nQuantidade de MÃƒÂ­dias: 1\n\nScreens:\n[img]http://a.imagehost.org/0152/3_8.png[/img]\n[img]http://a.imagehost.org/0550/4_4.png[/img]\n\nOutras infos:\nGeneral\nComplete name                    : E:Uma Noite De Amor E MÃƒÂºsica.DVDRip.XviD-nsierviUma Noite De Amor E MÃƒÂºsica.DVDRip.XviD-nsiervi.avi\nFormat                           : AVI\nFormat/Info                      : Audio Video Interleave\nFile size                        : 700 MiB\nDuration                         : 1h 29mn\nOverall bit rate                 : 1 093 Kbps\nWriting application              : VirtualDubMod 1.5.10.2 (build 2540/release)\nWriting library                  : VirtualDub build 30586/release\n\nVideo\nFormat                           : MPEG-4 Visual\nFormat profile                   : Streaming Video@L1\nFormat settings, BVOP            : Yes\nFormat settings, QPel            : No\nFormat settings, GMC             : No warppoints\nFormat settings, Matrix          : Default\nCodec ID                         : XVID\nCodec ID/Hint                    : XviD\nDuration                         : 1h 29mn\nBit rate                         : 951 Kbps\nWidth                            : 576 pixels\nHeight                           : 304 pixels\nDisplay aspect ratio             : 1.895\nFrame rate                       : 23.976 fps\nResolution                       : 24 bits\nColorimetry                      : 4:2:0\nScan type                        : Progressive\nBits/(Pixel*Frame)               : 0.227\nStream size                      : 609 MiB (87%)\nWriting library                  : XviD 1.2.1 (UTC 2008-12-04)\n\nAudio\nFormat                           : MPEG Audio\nFormat version                   : Version 1\nFormat profile                   : Layer 3\nCodec ID                         : 55\nCodec ID/Hint                    : MP3\nDuration                         : 1h 29mn\nBit rate mode                    : Variable\nBit rate                         : 129 Kbps\nNominal bit rate                 : 128 Kbps\nChannel(s)                       : 2 channels\nSampling rate                    : 48.0 KHz\nResolution                       : 16 bits\nStream size                      : 82.6 MiB (12%)\nAlignment                        : Aligned on interleaves\nInterleave, duration             : 24 ms (0.58 video frame)\nInterleave, preload duration     : 142 ms\nWriting library                  : LAME3.90.\nEncoding settings                : ABR\n\nThx from Brazil, Seed And Enjoy\nTamanho: 700Mb\nExtensÃƒÂ£o do Arquivo: Tipo de Compartilhamento: Torrent;\nIdioma do Audio: PortuguÃƒÂªs\nLegendas: Sem Legenda\n Qualidade do VÃƒÂ­deo: DVDrip\nAno de LanÃƒÂ§amento: 2008\nTempo de DuraÃƒÂ§ÃƒÂ£o: 1h 29min\nVÃƒÂ­deo Codec: XviD\nAudio Codec: Mp3\nResoluÃƒÂ§ÃƒÂ£o: 576 X 304\nFormato de Tela: WideScreen(16x9)\nFrame Rate: 23fps \n\n\nThx from Brazil, Seed And Enjoy","torrent":{"xt":"urn:btih:6036a6377c34f765a15d4e19880e4f31471ab32f","amp;dn":"Uma+Noite+De+Amor+E+M%C3%83%C2%BAsica.DVDRip.XviD-nsiervi","amp;tr":["udp%3A%2F%2Ftracker.openbittorrent.com%3A80","udp%3A%2F%2Fopen.demonii.com%3A1337","udp%3A%2F%2Ftracker.coppersurfer.tk%3A6969","udp%3A%2F%2Fexodus.desync.com%3A6969"],"infoHash":"6036a6377c34f765a15d4e19880e4f31471ab32f","infoHashBuffer":{"type":"Buffer","data":[96,54,166,55,124,52,247,101,161,93,78,25,136,14,79,49,71,26,179,47]},"announce":[],"urlList":[]}}